# xmcd
# 
# Track frame offsets:
#     150
#     12113
#     41359
#     61559
#     75432
#     91419
#     105330
#     128058
#     138996
#     168060
#     181215
#     197595
#     218780
#     235509
#     246733
#     255832
#     270099
#     283964
#     304836
#     318390
# 
# Disc length: 4459
# 
# Revision: 5
# Processed by: cddbd v1.5.2PL0 Copyright (c) Steve Scherf et al.
# Submitted via: fre:ac v1.0.31
# 
DISCID=f7116914
DTITLE=Chicken Shack - The Complete Blue Horizon Sessions - Disc 1
DYEAR=2005
DGENRE=Blues
TTITLE0=It's Okay With Me Baby
TTITLE1=When My Left Eye Jumps
TTITLE2=The Letter
TTITLE3=Lonesome Whistle Blues
TTITLE4=When The Train Comes Back
TTITLE5=San-Ho-Zay
TTITLE6=King Of The World
TTITLE7=See See Baby
TTITLE8=First Time I Met The Blues
TTITLE9=Webbed Feet
TTITLE10=You Ain't No Good
TTITLE11=What You Did Last Night
TTITLE12=Hey Baby
TTITLE13=Baby's Got Me Crying
TTITLE14=The Right Way Is My Way
TTITLE15=Get Like You Used To Be
TTITLE16=Pony And Trap
TTITLE17=Tell Me
TTITLE18=A Woman Is The Blues
TTITLE19=When The Train Comes Back (single version)
EXTD=
EXTT0=
EXTT1=
EXTT2=
EXTT3=
EXTT4=
EXTT5=
EXTT6=
EXTT7=
EXTT8=
EXTT9=
EXTT10=
EXTT11=
EXTT12=
EXTT13=
EXTT14=
EXTT15=
EXTT16=
EXTT17=
EXTT18=
EXTT19=
PLAYORDER=
